<?xml version="1.0" encoding="UTF-8" standalone="no"?>
<!-- Created with Inkscape (http://www.inkscape.org/) -->

<svg
   version="1.1"
   id="svg1"
   width="740.20001"
   height="682.05334"
   viewBox="0 0 740.20001 682.05334"
   sodipodi:docname="5245_GDream Studio.eps"
   xmlns:inkscape="http://www.inkscape.org/namespaces/inkscape"
   xmlns:sodipodi="http://sodipodi.sourceforge.net/DTD/sodipodi-0.dtd"
   xmlns="http://www.w3.org/2000/svg"
   xmlns:svg="http://www.w3.org/2000/svg">
  <defs
     id="defs1">
    <clipPath
       clipPathUnits="userSpaceOnUse"
       id="clipPath25">
      <path
         d="m 645.941,2013.52 h 4201.49 V 4753.49 H 645.941 Z"
         transform="translate(0,-2.5e-5)"
         id="path25" />
    </clipPath>
    <clipPath
       clipPathUnits="userSpaceOnUse"
       id="clipPath27">
      <path
         d="m 645.941,2013.52 h 4201.49 V 4753.49 H 645.941 Z"
         transform="translate(0,-2.5e-5)"
         id="path27" />
    </clipPath>
    <clipPath
       clipPathUnits="userSpaceOnUse"
       id="clipPath29">
      <path
         d="m 645.941,2013.52 h 4201.49 V 4753.49 H 645.941 Z"
         transform="translate(0,-2.5e-5)"
         id="path29" />
    </clipPath>
    <clipPath
       clipPathUnits="userSpaceOnUse"
       id="clipPath31">
      <path
         d="m 645.941,2013.52 h 4201.49 V 4753.49 H 645.941 Z"
         transform="translate(0,-2.5e-5)"
         id="path31" />
    </clipPath>
    <clipPath
       clipPathUnits="userSpaceOnUse"
       id="clipPath33">
      <path
         d="m 645.941,2013.52 h 4201.49 V 4753.49 H 645.941 Z"
         transform="translate(0,-2.5e-5)"
         id="path33" />
    </clipPath>
    <clipPath
       clipPathUnits="userSpaceOnUse"
       id="clipPath35">
      <path
         d="m 645.941,2013.52 h 4201.49 V 4753.49 H 645.941 Z"
         transform="translate(0,-2.5e-5)"
         id="path35" />
    </clipPath>
    <clipPath
       clipPathUnits="userSpaceOnUse"
       id="clipPath37">
      <path
         d="m 645.941,2013.52 h 4201.49 V 4753.49 H 645.941 Z"
         transform="translate(0,-2.5e-5)"
         id="path37" />
    </clipPath>
    <clipPath
       clipPathUnits="userSpaceOnUse"
       id="clipPath39">
      <path
         d="m 645.941,2013.52 h 4201.49 V 4753.49 H 645.941 Z"
         transform="translate(0,-2.5e-5)"
         id="path39" />
    </clipPath>
  </defs>
  <sodipodi:namedview
     id="namedview1"
     pagecolor="#ffffff"
     bordercolor="#000000"
     borderopacity="0.25"
     inkscape:showpageshadow="2"
     inkscape:pageopacity="0.0"
     inkscape:pagecheckerboard="0"
     inkscape:deskcolor="#d1d1d1">
    <inkscape:page
       x="0"
       y="0"
       inkscape:label="1"
       id="page1"
       width="740.20001"
       height="682.05334"
       margin="0"
       bleed="0" />
  </sodipodi:namedview>
  <g
     id="g1"
     inkscape:groupmode="layer"
     inkscape:label="1">
    <g
       id="group-R5">
      <path
         id="path2"
         d="M 119.332,0 C 93.0234,0 70.3906,4.53906 51.4453,13.6211 32.4961,22.6992 15.3398,36.4688 0,54.9688 L 42.2852,97.25 C 52.3047,84.3906 63.6563,74.4609 76.3438,67.4102 89.0273,60.3711 104.605,56.8398 123.086,56.8398 c 16.605,0 29.762,3.2891 39.469,9.8594 9.699,6.5821 14.558,15.6602 14.558,27.25 0,10.0198 -2.816,18.1718 -8.457,24.4298 -5.64,6.262 -13.074,11.512 -22.308,15.75 -9.25,4.23 -19.426,8.133 -30.543,11.73 -11.117,3.602 -22.1566,7.762 -33.1214,12.461 -10.9609,4.692 -21.1367,10.641 -30.5352,17.852 -9.3945,7.199 -16.8398,16.277 -22.3164,27.25 -5.4804,10.949 -8.2226,25.047 -8.2226,42.277 0,20.043 4.8594,37.11 14.5703,51.211 9.6992,14.09 23.0195,24.899 39.9297,32.41 16.914,7.52 36.0076,11.27 57.3166,11.27 22.551,0 42.984,-4.219 61.304,-12.668 18.321,-8.461 33.125,-19.43 44.395,-32.891 L 196.844,252.75 c -9.711,10.641 -19.653,18.48 -29.828,23.492 -10.18,5 -21.696,7.508 -34.532,7.508 -14.726,0 -26.308,-2.891 -34.7652,-8.68 -8.4571,-5.808 -12.6836,-13.871 -12.6836,-24.211 0,-9.089 2.8203,-16.359 8.4609,-21.839 5.6328,-5.481 13.0699,-10.34 22.3089,-14.559 9.234,-4.231 19.496,-8.219 30.777,-11.981 11.27,-3.761 22.387,-8.07 33.356,-12.921 10.957,-4.868 21.058,-10.969 30.296,-18.329 9.239,-7.359 16.68,-16.898 22.321,-28.648 5.636,-11.75 8.457,-26.242 8.457,-43.4609 0,-30.6992 -10.809,-54.8906 -32.418,-72.582 C 186.98,8.83203 157.223,0 119.332,0"
         style="fill:#ed1f24;fill-opacity:1;fill-rule:nonzero;stroke:none"
         transform="matrix(0.13333333,0,0,-0.13333333,0,682.05333)" />
      <path
         id="path3"
         d="M 998.789,5.16016 V 328.391 h 64.361 V 5.16016 Z M 893.555,278.59 v 56.84 H 1168.39 V 278.59 H 893.555"
         style="fill:#ed1f24;fill-opacity:1;fill-rule:nonzero;stroke:none"
         transform="matrix(0.13333333,0,0,-0.13333333,0,682.05333)" />
      <path
         id="path4"
         d="m 1978.79,0 c -26,0 -49.17,5.78906 -69.53,17.3789 -20.36,11.582 -36.4,27.4102 -48.15,47.4531 -11.75,20.0391 -17.62,42.75 -17.62,68.117 V 335.43 h 64.36 V 131.07 c 0,-14.73 3.13,-27.41 9.4,-38.0583 6.26,-10.6523 14.72,-18.8711 25.37,-24.6601 10.64,-5.8008 22.7,-8.6797 36.17,-8.6797 13.47,0 25.29,2.8789 35.47,8.6797 10.18,5.789 18.32,14.0078 24.43,24.6601 6.1,10.6483 9.16,23.1793 9.16,37.5903 V 335.43 h 64.37 V 132.48 c 0,-25.359 -5.73,-48.0112 -17.16,-67.8784 C 2083.63,44.6992 2067.89,28.9609 2047.85,17.3789 2027.8,5.78906 2004.78,0 1978.79,0"
         style="fill:#ed1f24;fill-opacity:1;fill-rule:nonzero;stroke:none"
         transform="matrix(0.13333333,0,0,-0.13333333,0,682.05333)" />
      <path
         id="path5"
         d="M 2857.78,5.16016 V 62 h 84.09 c 20.99,0 39.54,4.4688 55.67,13.3984 16.14,8.9219 28.66,21.6133 37.59,38.0426 8.93,16.45 13.38,35.641 13.38,57.571 0,21.59 -4.54,40.398 -13.61,56.367 -9.09,15.973 -21.61,28.5 -37.59,37.59 -15.98,9.07 -34.45,13.621 -55.44,13.621 h -85.5 v 56.84 h 86.44 c 24.42,0 47.13,-4.078 68.12,-12.211 20.99,-8.16 39.15,-19.66 54.5,-34.539 15.34,-14.871 27.25,-32.328 35.7,-52.379 8.45,-20.039 12.69,-41.981 12.69,-65.762 0,-23.82 -4.24,-45.82 -12.69,-66.019 -8.45,-20.1997 -20.36,-37.7387 -35.7,-52.6098 -15.35,-14.8789 -33.44,-26.3985 -54.26,-34.5313 -20.84,-8.13671 -43.29,-12.21874 -67.42,-12.21874 z m -43.68,0 V 335.43 h 63.87 V 5.16016 h -63.87"
         style="fill:#ed1f24;fill-opacity:1;fill-rule:nonzero;stroke:none"
         transform="matrix(0.13333333,0,0,-0.13333333,0,682.05333)" />
      <path
         id="path6"
         d="M 3803.96,5.16016 V 335.43 h 63.88 V 5.16016 h -63.88"
         style="fill:#ed1f24;fill-opacity:1;fill-rule:nonzero;stroke:none"
         transform="matrix(0.13333333,0,0,-0.13333333,0,682.05333)" />
      <path
         id="path7"
         d="m 4728.04,59.1914 c 21,0 39.39,4.6992 55.22,14.0899 15.8,9.3984 28.1,22.4687 36.87,39.2387 8.77,16.742 13.15,36.242 13.15,58.492 0,16.277 -2.5,31.16 -7.51,44.617 -5.01,13.473 -12.22,25.133 -21.62,35 -9.39,9.871 -20.43,17.453 -33.12,22.793 -12.68,5.32 -27.01,7.988 -42.99,7.988 -20.66,0 -38.83,-4.629 -54.48,-13.871 -15.67,-9.238 -27.96,-22.148 -36.89,-38.75 -8.93,-16.609 -13.39,-35.859 -13.39,-57.777 0,-16.61 2.51,-31.793 7.53,-45.582 5,-13.789 12.13,-25.5394 21.37,-35.2308 9.23,-9.707 20.35,-17.3203 33.34,-22.789 13,-5.4883 27.17,-8.2188 42.52,-8.2188 z M 4728.99,0 c -24.12,0 -46.59,4.39063 -67.41,13.1406 -20.84,8.7696 -39.08,20.9883 -54.74,36.6602 -15.66,15.6601 -27.88,33.8203 -36.65,54.4882 -8.77,20.672 -13.14,42.902 -13.14,66.723 0,23.789 4.37,45.949 13.14,66.468 8.77,20.512 20.91,38.602 36.41,54.27 15.51,15.652 33.6,27.711 54.26,36.172 20.68,8.449 43.06,12.668 67.18,12.668 24.44,0 46.98,-4.219 67.67,-12.668 20.67,-8.461 38.75,-20.52 54.25,-36.172 15.5,-15.668 27.64,-33.84 36.41,-54.508 8.77,-20.672 13.16,-42.922 13.16,-66.703 0,-23.82 -4.39,-46.047 -13.16,-66.719 C 4877.6,83.1523 4865.54,64.9805 4850.19,49.332 4834.85,33.6602 4816.76,21.5313 4795.94,12.9219 4775.1,4.30078 4752.79,0 4728.99,0"
         style="fill:#ed1f24;fill-opacity:1;fill-rule:nonzero;stroke:none"
         transform="matrix(0.13333333,0,0,-0.13333333,0,682.05333)" />
      <path
         id="path8"
         d="m 338.09,620.859 c -83.875,0 -150.438,17.821 -199.707,53.473 C 89.0898,709.961 53.7148,760.551 32.2422,826.09 10.7305,891.582 0,968.91 0,1058.04 v 427.72 c 0,91.2 10.4688,169.83 31.4492,235.87 20.961,66.05 57.9141,116.61 110.8638,151.76 52.925,35.1 126.05,52.68 219.367,52.68 87.008,0 156.199,-14.7 207.574,-44.03 51.351,-29.38 88.309,-71.55 110.863,-126.59 22.535,-55.05 33.813,-121.87 33.813,-200.5 v -66.04 H 492.203 v 72.33 c 0,40.89 -2.906,75.99 -8.652,105.36 -5.774,29.33 -17.297,51.62 -34.598,66.83 -17.293,15.18 -45.351,22.8 -84.129,22.8 -40.883,0 -70.519,-9.98 -88.847,-29.87 -18.356,-19.94 -29.879,-46.15 -34.594,-78.63 -4.715,-32.51 -7.078,-68.16 -7.078,-106.93 v -533.09 c 0,-44.03 3.66,-82.312 11.008,-114.788 7.324,-32.524 20.96,-57.41 40.886,-74.703 19.903,-17.297 48.211,-25.949 84.918,-25.949 37.738,0 66.563,9.441 86.485,28.3 19.906,18.879 33.808,45.082 41.675,78.629 7.86,33.551 11.793,73.383 11.793,119.521 l 2.422,139.2 -187.265,44 v 146.24 l 393.992,-63.69 V 434.121 H 570.828 L 553.523,763.969 C 536.746,722.02 511.316,687.711 477.262,660.961 443.184,634.242 396.793,620.859 338.09,620.859"
         style="fill:#1b1a17;fill-opacity:1;fill-rule:nonzero;stroke:none"
         transform="matrix(0.13333333,0,0,-0.13333333,0,682.05333)" />
      <path
         id="path9"
         d="m 1665.26,1695.96 v -645.83 c 0,-92.259 -12.32,-168.97 -36.97,-230.368 -24.65,-61.27 -65.42,-106.883 -122.56,-136.832 -57.24,-29.828 -135.56,-44.809 -235.08,-44.809 H 813.711 v 162.07 h 450.599 c 53.45,0 91.69,9.438 114.84,28.211 23.04,18.887 37.08,46.43 42.39,82.59 5.3,36.168 7.83,80.387 7.83,132.918 v 667.71 c 0,51.38 -3.69,92.84 -10.94,124.29 -7.38,31.44 -22.58,54.48 -45.62,69.22 -23.04,14.63 -60.35,22 -111.61,22 h -67.61 V 897.82 H 960.805 V 2092.19 H 1261.2 c 103.78,0 184.76,-14.17 242.92,-42.39 58.17,-28.33 99.52,-71.87 124.17,-130.61 24.65,-58.63 36.97,-133.16 36.97,-223.23"
         style="fill:#1b1a17;fill-opacity:1;fill-rule:nonzero;stroke:none"
         transform="matrix(0.13333333,0,0,-0.13333333,0,682.05333)" />
      <path
         id="path10"
         d="m 2132.32,1367.81 h 72.34 c 45.06,0 80.98,6.55 107.71,19.67 26.74,13.09 45.86,34.06 57.4,62.9 11.52,28.82 17.3,65.77 17.3,110.86 0,63.93 -11.79,111.9 -35.38,143.89 -23.59,31.95 -68.4,47.95 -134.45,47.95 h -84.92 z M 1899.58,638.172 V 1911.92 h 305.08 c 85.95,0 158.55,-10.23 217.79,-30.67 59.21,-20.45 104.31,-55.31 135.23,-104.58 30.9,-49.29 46.39,-116.37 46.39,-201.28 0,-51.38 -4.7,-97.5 -14.15,-138.39 -9.43,-40.87 -25.42,-75.75 -47.96,-104.56 -22.55,-28.85 -53.73,-51.11 -93.56,-66.83 l 294.07,-922.7 h -232.74 l -270.48,878.66 H 2132.32 V 638.172 h -232.74"
         style="fill:#1b1a17;fill-opacity:1;fill-rule:nonzero;stroke:none"
         transform="matrix(0.13333333,0,0,-0.13333333,0,682.05333)" />
      <path
         id="path11"
         d="M 2844.67,638.172 V 1911.92 l 1216.45,206.16 v -163.55 l -983.73,-184.29 v -388.28 l 322.52,77.15 v -161.97 l -322.52,-77.15 V 798.559 h 305.08 V 638.172 h -537.8"
         style="fill:#1b1a17;fill-opacity:1;fill-rule:nonzero;stroke:none"
         transform="matrix(0.13333333,0,0,-0.13333333,0,682.05333)" />
      <path
         id="path12"
         d="m 3810.19,1080.08 86.5,534.67 86.51,-534.67 z m 223,762.74 -288.2,-60.47 -228.86,-1144.229 h 218.62 l 51.83,294.059 h 221.73 l 50.34,-294.059 h 215.39 L 4033.19,1842.82"
         style="fill:#1b1a17;fill-opacity:1;fill-rule:nonzero;stroke:none"
         transform="matrix(0.13333333,0,0,-0.13333333,0,682.05333)" />
      <path
         id="path13"
         d="m 4413.64,638.172 22.01,1273.748 h 240.59 l 180.84,-882.2 188.72,882.2 h 232.73 L 5388.61,5.16016 H 5215.62 L 5110.27,1523.5 4929.42,638.172 h -139.95 l -183.99,888.478 -17.3,-888.478 h -174.54"
         style="fill:#1b1a17;fill-opacity:1;fill-rule:nonzero;stroke:none"
         transform="matrix(0.13333333,0,0,-0.13333333,0,682.05333)" />
      <path
         id="path14"
         d="m 3340.91,4144.42 c 49.74,0 97.12,40.32 105.84,90.06 8.7,49.72 -24.55,90.04 -74.28,90.04 -49.74,0 -97.11,-40.32 -105.83,-90.04 -8.72,-49.74 24.54,-90.06 74.27,-90.06"
         style="fill:#ed1f24;fill-opacity:1;fill-rule:nonzero;stroke:none"
         transform="matrix(0.13333333,0,0,-0.13333333,0,682.05333)" />
      <path
         id="path15"
         d="m 3279.29,3792.63 c 49.74,0 97.12,40.32 105.82,90.06 8.72,49.72 -24.53,90.05 -74.27,90.05 -49.73,0 -97.12,-40.33 -105.82,-90.05 -8.72,-49.74 24.54,-90.06 74.27,-90.06"
         style="fill:#ed1f24;fill-opacity:1;fill-rule:nonzero;stroke:none"
         transform="matrix(0.13333333,0,0,-0.13333333,0,682.05333)" />
      <path
         id="path16"
         d="m 3240.04,4058.58 c 8.71,49.73 -24.54,90.05 -74.27,90.05 -49.74,0 -97.11,-40.32 -105.83,-90.05 -8.72,-49.74 24.54,-90.06 74.27,-90.06 49.74,0 97.12,40.32 105.83,90.06"
         style="fill:#ed1f24;fill-opacity:1;fill-rule:nonzero;stroke:none"
         transform="matrix(0.13333333,0,0,-0.13333333,0,682.05333)" />
      <path
         id="path17"
         d="m 3591.83,4058.58 c 8.7,49.73 -24.55,90.05 -74.29,90.05 -49.72,0 -97.1,-40.32 -105.82,-90.05 -8.72,-49.74 24.54,-90.06 74.28,-90.06 49.73,0 97.11,40.32 105.83,90.06"
         style="fill:#ed1f24;fill-opacity:1;fill-rule:nonzero;stroke:none"
         transform="matrix(0.13333333,0,0,-0.13333333,0,682.05333)" />
      <path
         id="path18"
         d="m 2210.62,3989.39 h 127.55 c 38.23,0 74.62,30.97 81.32,69.19 6.7,38.21 -18.86,69.2 -57.08,69.2 h -127.55 l 22.35,127.55 c 6.69,38.22 -18.86,69.19 -57.08,69.19 -38.21,0 -74.62,-30.97 -81.32,-69.19 l -22.34,-127.55 h -127.55 c -38.22,0 -74.63,-30.99 -81.33,-69.2 -6.68,-38.22 18.87,-69.19 57.08,-69.19 h 127.56 l -22.34,-127.56 c -6.7,-38.21 18.85,-69.2 57.06,-69.2 38.23,0 74.63,30.99 81.33,69.2 l 22.34,127.56"
         style="fill:#ed1f24;fill-opacity:1;fill-rule:nonzero;stroke:none"
         transform="matrix(0.13333333,0,0,-0.13333333,0,682.05333)" />
      <path
         id="path19"
         d="m 4877.14,4737.75 v 0 c 0,104.28 -84.53,188.81 -188.8,188.81 104.27,0 188.8,84.53 188.8,188.81 0,-104.28 84.53,-188.81 188.81,-188.81 -104.28,0 -188.81,-84.53 -188.81,-188.81"
         style="fill:#1b1a17;fill-opacity:1;fill-rule:nonzero;stroke:none"
         transform="matrix(0.13333333,0,0,-0.13333333,0,682.05333)" />
      <path
         id="path20"
         d="m 450.152,3818.45 v 0 c 0,49.74 -40.312,90.05 -90.047,90.05 49.735,0 90.047,40.32 90.047,90.05 0,-49.73 40.317,-90.05 90.051,-90.05 -49.734,0 -90.051,-40.31 -90.051,-90.05"
         style="fill:#1b1a17;fill-opacity:1;fill-rule:nonzero;stroke:none"
         transform="matrix(0.13333333,0,0,-0.13333333,0,682.05333)" />
      <path
         id="path21"
         d="m 5509.05,4450.62 -42.59,31.65 -50.22,-17.14 16.94,50.29 -31.82,42.46 53.07,-0.57 30.54,43.39 15.85,-50.65 50.71,-15.65 -43.26,-30.72 0.78,-53.06"
         style="fill:#1b1a17;fill-opacity:1;fill-rule:nonzero;stroke:none"
         transform="matrix(0.13333333,0,0,-0.13333333,0,682.05333)" />
      <path
         id="path22"
         d="m 1160.5,4725.97 -79.2,58.85 -93.37,-31.87 31.5,93.5 -59.168,78.96 98.668,-1.06 56.81,80.67 29.47,-94.17 94.28,-29.1 -80.45,-57.13 1.46,-98.65"
         style="fill:#1b1a17;fill-opacity:1;fill-rule:nonzero;stroke:none"
         transform="matrix(0.13333333,0,0,-0.13333333,0,682.05333)" />
      <path
         id="path23"
         d="m 4847.42,3856.72 v 8.42 c 0,-1.41 0.01,-2.83 0.01,-4.24 0,-1.39 -0.01,-2.79 -0.01,-4.18 m -897.1,896.77 h -3.04 c 0.34,0 0.51,0 0.51,0 0.84,0 1.69,0 2.53,0"
         style="fill:#1b1a17;fill-opacity:1;fill-rule:nonzero;stroke:none"
         transform="matrix(0.13333333,0,0,-0.13333333,0,682.05333)" />
      <path
         id="path24"
         d="m 2337.88,2214.63 h -25.6 c -12.91,35.76 -47.17,61.3 -87.33,61.3 h -14.74 c -4.44,43.2 29.81,120.33 88.62,212.68 27.28,42.81 45.82,72.27 57.97,91.75 -18.57,47.63 -88.7,68.44 -130.41,135.77 60.63,-57.2 139.42,-59.2 155.54,-117.63 12.31,-44.61 23.96,-76.52 37.09,-104.36 17.84,-37.81 38.43,-68.05 67.24,-111.98 22.83,-34.81 40.37,-58.11 52.34,-72.85 11.05,-13.6 27.58,-21.5 45.1,-21.5 h 189.46 v 0 c 0,51.26 -41.55,92.82 -92.82,92.82 h -16.37 c -13.4,40.89 -25.89,78.17 -34.5,112 -22.74,89.29 -18.36,154.41 68.26,197.41 53.75,26.68 80.64,68.97 93.94,107.84 -8.64,-40.15 -30.33,-85.24 -80.54,-118.04 -44.29,-28.93 -63.23,-61.59 -65.99,-99.28 9.86,-27.18 23.83,-60.52 43.25,-97.5 28.62,-54.46 41.06,-73.76 60.25,-103.37 9.9,-15.27 40.71,-19.04 74.35,-19.04 17.67,0 36.12,1.04 52.74,1.99 -2.47,12.87 -6.99,26.39 -18.08,39.55 -34.71,41.14 -72.78,107.89 -96.62,200.53 33,-89.77 77.58,-152.34 116.23,-189.81 24.66,-23.92 23.47,-51.88 31.26,-72.17 2.21,-5.8 5.13,-11 9.64,-15.27 9.8,-9.31 33.49,-13.57 61.18,-15.05 l -206.18,-39.37 h -370.11 l 33.14,129.42 h 0.04 c -13.55,20.85 -25.64,40.39 -36.48,60.95 l -61.87,-246.79 m -261.32,0 h -213.82 l 143.04,481.08 h -14.11 c -61.42,-70.98 -134.04,-131.13 -217.86,-180.51 -83.83,-49.8 -192.96,-74.28 -327.4,-74.28 -104.16,0 -203.75,17 -299.19,51.04 -95.86,34.45 -180.927,88.81 -255.204,163.07 -74.278,74.28 -134.032,171.79 -178.848,292.13 -44.809,120.36 -67.227,265.59 -67.227,435.7 v 0 c 0,184.27 28.223,358.96 85.071,524.12 56.437,165.15 141.504,310.8 254.789,437.38 113.289,126.12 255.199,226.13 424.919,299.18 120.75,51.87 255.62,85.49 404.59,100.41 34.13,3.7 2094.99,9.44 2131.97,9.54 h 3.04 c 50.14,-0.05 98.67,-1.72 144.36,-5.81 90.88,-6.22 173.87,-19.92 248.57,-39.82 112.87,-30.3 206.23,-80.94 280.1,-151.06 74.27,-70.54 129.89,-162.67 167.64,-276.78 37.44,-113.14 56.12,-251.55 56.43,-414.88 v -8.42 c -0.35,-175.73 -22.76,-347.79 -67.22,-516.59 -45.23,-169.71 -119.92,-321.59 -224.07,-455.21 -104.57,-133.6 -241.1,-240.68 -409.57,-322 -168.89,-81.33 -377.2,-122 -624.94,-122 h -481.01 c 1.26,-5.72 2.58,-11.21 4.02,-16.24 3.87,-1.19 9.08,-2.53 15.17,-3.57 8.11,-1.43 15.67,-4.02 22.95,-7.08 l 64.72,1.35 236.16,-27.74 -270.34,-51.63 c -7.05,27.35 -29.91,48.55 -58.94,53.59 -23.3,4.05 -35.43,11.02 -35.43,11.02 -22.51,59.3 -25.61,180.02 -29.65,248.51 -4.12,68.57 16.65,232.97 16.65,232.97 13.47,139.91 178.35,176.77 282.51,213.47 37.42,13.2 61.76,28.22 77.63,42.33 -3.46,0.39 -6.91,0.9 -10.25,1.68 -10.63,2.41 -20.67,6.44 -29.46,12.06 7.62,-2.12 15.43,-3.08 23.08,-3.08 2.39,0 4.77,0.09 7.12,0.28 9.02,0.62 17.6,2.88 25.41,6.19 6.54,8.8 10.02,16.64 11.9,22.66 -8.43,1.49 -27.97,6.32 -27.97,21.5 0,11.55 11.6,17.28 18.92,19.75 -13.27,12.33 -34.52,15.98 -43.75,17.49 -38.83,6.35 -56.83,35.83 -93.78,66.27 -28.18,23.26 -53.91,30.8 -83.29,30.8 -30.12,0 -64.07,-7.92 -108.45,-14.94 -82.12,-13 -131.75,-42.89 -202.14,-47.25 0,0 -75.7,-5.54 -106.54,-19.73 -51.13,-23.47 -127.38,-49.55 -219.89,-53.19 -92.59,-3.57 -168.85,-41.78 -168.85,-41.78 19.19,27.59 45.03,41.78 45.03,41.78 -53.35,-9.28 -97.18,-26.24 -133.17,-47.33 -135.08,-79.03 -159.34,-215.53 -159.34,-215.53 -7.53,-37.57 -8.4,-85.69 -23.77,-148.71 -5.55,-22.67 -13,-47.25 -23.31,-73.96 -38.84,-100.99 -28.38,-200.63 -28.38,-200.63 3.49,21.49 19.18,41.78 19.18,41.78 -8,-43.44 -9.43,-156.32 -9.67,-211.65 -0.15,-38.13 7.3,-75.94 23.15,-110.66 3.04,-6.65 6.01,-12.41 8.72,-17.07 m 1807.71,2292.38 -990.86,-0.03 -990.85,-0.03 c -228.22,-0.01 -450.18,-190.05 -505.52,-432.81 L 1204.26,2981.89 c -30.25,-171.4 75.65,-310.32 236.52,-310.32 126.19,0.01 254.57,86.15 315.03,214.4 71.59,151.88 131.31,287.09 175.17,422.17 12.03,37.04 23.17,76.23 42.68,114.5 h -263.6 l 53.11,237.36 h 924.56 l -0.06,-0.25 -95.36,-422.46 c 58.8,9.85 107.52,27.83 141.29,43.29 20.03,9.29 52.92,15.15 78.94,18.58 l 70.88,358.22 c 583.51,-25.24 554.54,-216.13 568.2,-349.18 13.65,-133.14 -10.77,-270.3 7.21,-422.18 15.19,-128.25 113.17,-214.38 239.36,-214.37 160.87,0.01 315.81,138.95 346.05,310.34 l 192.78,1092.26 c 30.35,242.75 -124.55,432.76 -352.75,432.76 m 560.72,-1022.95 c 0,-76.34 -61.88,-138.22 -138.2,-138.22 76.32,0 138.2,-61.88 138.2,-138.21 0,76.33 61.89,138.21 138.22,138.21 -76.33,0 -138.22,61.88 -138.22,138.22 M 3263.67,3323.7 c -8.39,0 -17.51,-2.21 -24.25,-4.31 4.53,-3.01 8.97,-6.34 13.4,-9.98 10.78,-8.88 20.14,-17.84 28.38,-25.69 l 0.87,-0.87 c 11.1,32.72 -2.32,40.85 -18.4,40.85 m -2111.66,701.61 v 0 l -0.78,53.05 43.26,30.73 -50.71,15.65 -15.85,50.64 -30.55,-43.38 -53.06,0.57 31.82,-42.46 -16.94,-50.29 50.22,17.14 42.59,-31.65"
         style="fill:#1b1a17;fill-opacity:1;fill-rule:nonzero;stroke:none"
         transform="matrix(0.13333333,0,0,-0.13333333,0,682.05333)"
         clip-path="url(#clipPath25)" />
      <path
         id="path26"
         d="m 1862.67,2019.34 1466.51,327.24 254.52,-19.63 -1721.03,-307.61"
         style="fill:#1b1a17;fill-opacity:1;fill-rule:nonzero;stroke:none"
         transform="matrix(0.13333333,0,0,-0.13333333,0,682.05333)"
         clip-path="url(#clipPath27)" />
      <path
         id="path28"
         d="m 1699.05,2013.52 v 0 l 230.64,118.07 641.4,74.69 -872.04,-192.76"
         style="fill:#1b1a17;fill-opacity:1;fill-rule:nonzero;stroke:none"
         transform="matrix(0.13333333,0,0,-0.13333333,0,682.05333)"
         clip-path="url(#clipPath29)" />
      <path
         id="path30"
         d="m 3129,3203.83 c -10.03,7.83 -18.24,17.56 -24.9,28.57 -3.36,5.54 -6.13,11.45 -8.16,18.05 -1.85,6.59 -3.08,14.07 -0.78,22.27 0.83,2 1.38,4.07 2.62,5.93 1.35,1.79 2.55,3.81 4.24,5.24 3.44,2.98 7.29,4.91 11.12,5.93 3.57,0.87 6.98,1.24 10.26,1.24 3.78,0 7.38,-0.49 10.86,-1.23 12.96,-2.67 24.57,-8.1 34.73,-15.75 -12.52,1.56 -24.61,3.37 -36.05,3.5 -5.64,-0.1 -11.26,-0.28 -15.37,-2.06 -4.2,-1.72 -6.15,-3.71 -7.24,-7.4 -2.16,-7.62 0.98,-19.59 4.92,-30.37 4.11,-11.04 9.03,-22.17 13.75,-33.92 m 142.7,23.87 c -8.73,0 -18.46,2.87 -18.7,11.89 -0.08,3.02 3.07,7.66 8.59,7.66 1.99,0 4.28,-0.6 6.85,-2.09 7.7,-4.5 12.06,-5.79 16.18,-5.79 1.06,0 2.1,0.09 3.18,0.22 0.16,0.02 0.31,0.03 0.46,0.03 4.51,0 -0.59,-10.05 -11.01,-11.54 -1.72,-0.24 -3.61,-0.38 -5.55,-0.38"
         style="fill:#1b1a17;fill-opacity:1;fill-rule:nonzero;stroke:none"
         transform="matrix(0.13333333,0,0,-0.13333333,0,682.05333)"
         clip-path="url(#clipPath31)" />
      <path
         id="path32"
         d="m 4444.99,3207.63 c 0,76.33 -61.88,138.21 -138.2,138.21 76.32,0 138.2,61.88 138.2,138.22 0,-76.34 61.89,-138.22 138.22,-138.22 -76.33,0 -138.22,-61.88 -138.22,-138.21"
         style="fill:#ffffff;fill-opacity:1;fill-rule:nonzero;stroke:none"
         transform="matrix(0.13333333,0,0,-0.13333333,0,682.05333)"
         clip-path="url(#clipPath33)" />
      <path
         id="path34"
         d="m 1152.01,4025.31 -42.59,31.65 -50.22,-17.14 16.94,50.29 -31.82,42.46 53.06,-0.57 30.55,43.38 15.85,-50.64 50.71,-15.65 -43.26,-30.73 0.78,-53.05"
         style="fill:#ffffff;fill-opacity:1;fill-rule:nonzero;stroke:none"
         transform="matrix(0.13333333,0,0,-0.13333333,0,682.05333)"
         clip-path="url(#clipPath35)" />
      <path
         id="path36"
         d="m 3282.07,3282.85 -0.87,0.87 c -8.24,7.85 -17.6,16.81 -28.38,25.69 -4.43,3.64 -8.87,6.97 -13.4,9.98 6.74,2.1 15.86,4.31 24.25,4.31 16.08,0 29.5,-8.13 18.4,-40.85"
         style="fill:#ffffff;fill-opacity:1;fill-rule:nonzero;stroke:none"
         transform="matrix(0.13333333,0,0,-0.13333333,0,682.05333)"
         clip-path="url(#clipPath37)" />
      <path
         id="path38"
         d="m 2312.28,2214.63 h -235.72 c -2.71,4.66 -5.68,10.42 -8.72,17.07 -15.85,34.72 -23.3,72.53 -23.15,110.66 0.24,55.33 1.67,168.21 9.67,211.65 0,0 -15.69,-20.29 -19.18,-41.78 0,0 -10.46,99.64 28.38,200.63 10.31,26.71 17.76,51.29 23.31,73.96 15.37,63.02 16.24,111.14 23.77,148.71 0,0 24.26,136.5 159.34,215.53 35.99,21.09 79.82,38.05 133.17,47.33 0,0 -25.84,-14.19 -45.03,-41.78 0,0 76.26,38.21 168.85,41.78 92.51,3.64 168.76,29.72 219.89,53.19 30.84,14.19 106.54,19.73 106.54,19.73 70.39,4.36 120.02,34.25 202.14,47.25 44.38,7.02 78.33,14.94 108.45,14.94 29.38,0 55.11,-7.54 83.29,-30.8 36.95,-30.44 54.95,-59.92 93.78,-66.27 9.23,-1.51 30.48,-5.16 43.75,-17.49 -7.32,-2.47 -18.92,-8.2 -18.92,-19.75 0,-15.18 19.54,-20.01 27.97,-21.5 -1.88,-6.02 -5.36,-13.86 -11.9,-22.66 -7.81,-3.31 -16.39,-5.57 -25.41,-6.19 -2.35,-0.19 -4.73,-0.28 -7.12,-0.28 -7.65,0 -15.46,0.96 -23.08,3.08 8.79,-5.62 18.83,-9.65 29.46,-12.06 3.34,-0.78 6.79,-1.29 10.25,-1.68 -15.87,-14.11 -40.21,-29.13 -77.63,-42.33 -104.16,-36.7 -269.04,-73.56 -282.51,-213.47 0,0 -20.77,-164.4 -16.65,-232.97 4.04,-68.49 7.14,-189.21 29.65,-248.51 0,0 12.13,-6.97 35.43,-11.02 29.03,-5.04 51.89,-26.24 58.94,-53.59 l -133.95,-25.59 c -27.69,1.48 -51.38,5.74 -61.18,15.05 -4.51,4.27 -7.43,9.47 -9.64,15.27 -7.79,20.29 -6.6,48.25 -31.26,72.17 -38.65,37.47 -83.23,100.04 -116.23,189.81 23.84,-92.64 61.91,-159.39 96.62,-200.53 11.09,-13.16 15.61,-26.68 18.08,-39.55 -16.62,-0.95 -35.07,-1.99 -52.74,-1.99 -33.64,0 -64.45,3.77 -74.35,19.04 -19.19,29.61 -31.63,48.91 -60.25,103.37 -19.42,36.98 -33.39,70.32 -43.25,97.5 2.76,37.69 21.7,70.35 65.99,99.28 50.21,32.8 71.9,77.89 80.54,118.04 -13.3,-38.87 -40.19,-81.16 -93.94,-107.84 -86.62,-43 -91,-108.12 -68.26,-197.41 8.61,-33.83 21.1,-71.11 34.5,-112 h 16.37 c 51.27,0 92.82,-41.56 92.82,-92.82 H 2583.7 c -17.52,0 -34.05,7.9 -45.1,21.5 -11.97,14.74 -29.51,38.04 -52.34,72.85 -28.81,43.93 -49.4,74.17 -67.24,111.98 -13.13,27.84 -24.78,59.75 -37.09,104.36 -16.12,58.43 -94.91,60.43 -155.54,117.63 41.71,-67.33 111.84,-88.14 130.41,-135.77 -12.15,-19.48 -30.69,-48.94 -57.97,-91.75 -58.81,-92.35 -93.06,-169.48 -88.62,-212.68 h 14.74 c 40.16,0 74.42,-25.54 87.33,-61.3 m 811.12,1076.43 c -3.28,0 -6.69,-0.37 -10.26,-1.24 -3.83,-1.02 -7.68,-2.95 -11.12,-5.93 -1.69,-1.43 -2.89,-3.45 -4.24,-5.24 -1.24,-1.86 -1.79,-3.93 -2.62,-5.93 -2.3,-8.2 -1.07,-15.68 0.78,-22.27 2.03,-6.6 4.8,-12.51 8.16,-18.05 6.66,-11.01 14.87,-20.74 24.9,-28.57 -4.72,11.75 -9.64,22.88 -13.75,33.92 -3.94,10.78 -7.08,22.75 -4.92,30.37 1.09,3.69 3.04,5.68 7.24,7.4 4.11,1.78 9.73,1.96 15.37,2.06 11.44,-0.13 23.53,-1.94 36.05,-3.5 -10.16,7.65 -21.77,13.08 -34.73,15.75 -3.48,0.74 -7.08,1.23 -10.86,1.23 m 138.19,-43.81 c -5.52,0 -8.67,-4.64 -8.59,-7.66 0.24,-9.02 9.97,-11.89 18.7,-11.89 1.94,0 3.83,0.14 5.55,0.38 10.42,1.49 15.52,11.54 11.01,11.54 -0.15,0 -0.3,-0.01 -0.46,-0.03 -1.08,-0.13 -2.12,-0.22 -3.18,-0.22 -4.12,0 -8.48,1.29 -16.18,5.79 -2.57,1.49 -4.86,2.09 -6.85,2.09"
         style="fill:#ffffff;fill-opacity:1;fill-rule:nonzero;stroke:none"
         transform="matrix(0.13333333,0,0,-0.13333333,0,682.05333)"
         clip-path="url(#clipPath39)" />
    </g>
  </g>
</svg>
