<svg version="1.1" id="Layer_1" xmlns="http://www.w3.org/2000/svg" xmlns:xlink="http://www.w3.org/1999/xlink" x="0px" y="0px"
	 width="100%" viewBox="0 0 128 64" xml:space="preserve">
<path fill="#606060" opacity="1.000000" stroke="none" 
	d="
M29.113918,16.109474 
	C55.395626,16.073433 81.677513,15.995300 107.958549,16.111275 
	C109.454247,16.117874 111.053818,17.569124 112.406013,18.607271 
	C113.996925,19.828697 115.322952,21.388218 116.846657,22.705334 
	C122.852654,27.897036 122.769096,39.689095 116.398422,44.641083 
	C115.904045,45.025368 114.774353,45.011242 114.656822,45.399368 
	C112.466125,52.634136 106.548737,50.980389 101.396782,50.985348 
	C77.609192,51.008247 53.821556,50.979393 29.558773,50.569038 
	C30.743658,48.442780 32.403709,46.716579 34.507843,44.994240 
	C39.906998,45.753410 44.624905,44.801941 46.228130,39.726437 
	C47.612240,35.344597 47.844189,30.711309 45.293938,25.927486 
	C42.418926,20.534475 38.078762,22.428257 33.697289,21.990280 
	C31.925182,20.017115 30.519550,18.063295 29.113918,16.109474 
M58.831577,32.010033 
	C60.104481,31.947342 61.377380,31.884653 62.531654,31.827806 
	C64.816010,21.763887 59.832329,20.629871 49.466324,22.790991 
	C49.466324,30.193304 49.466324,37.529327 49.466324,44.865349 
	C51.647224,44.050598 53.342876,42.904831 53.815712,41.379910 
	C54.395947,39.508614 53.954094,37.320404 53.954094,35.269196 
	C54.371101,35.183762 54.788105,35.098324 55.205112,35.012890 
	C57.334023,38.424786 59.462936,41.836681 61.591846,45.248573 
	C63.036644,40.595989 64.209373,36.328117 58.644886,34.634220 
	C58.215622,34.503544 58.239975,32.882736 58.003414,32.002373 
	C58.003414,32.002373 57.955559,32.052433 58.831577,32.010033 
M96.000000,38.349068 
	C96.000000,40.537151 96.000000,42.725235 96.000000,45.439957 
	C103.707878,42.625656 99.521500,36.218681 102.048790,31.190693 
	C103.257286,34.014984 104.946053,36.099026 104.825150,38.072178 
	C104.583694,42.012825 106.331207,43.672977 109.650909,44.762959 
	C109.650909,37.060268 109.650909,29.689947 109.650909,21.920198 
	C107.854317,23.121609 105.952339,23.739267 105.197289,25.028591 
	C103.377823,28.135454 102.418045,28.257212 100.776688,24.899485 
	C100.111397,23.538485 98.200607,22.786318 96.000000,21.101181 
	C96.000000,27.431078 96.000000,32.410294 96.000000,38.349068 
M73.298164,32.004162 
	C71.900955,31.890392 70.503746,31.776623 69.321060,31.680321 
	C69.321060,28.848997 69.321060,26.592062 69.321060,24.295612 
	C72.368759,24.035364 75.108192,23.801441 77.847618,23.567516 
	C77.803261,23.170263 77.758904,22.773012 77.714539,22.375759 
	C73.584061,22.375759 69.453583,22.375759 65.402733,22.375759 
	C65.402733,30.076212 65.402733,37.445431 65.402733,44.526173 
	C69.793388,44.526173 73.771370,44.526173 77.749352,44.526173 
	C77.772499,44.108871 77.795639,43.691566 77.818787,43.274265 
	C75.036385,43.120243 72.253975,42.966221 69.299423,42.802670 
	C69.299423,40.128414 69.299423,37.743530 69.299423,35.176727 
	C71.218834,35.089321 73.006317,35.407928 74.454735,34.848557 
	C76.647865,34.001583 76.695992,32.743641 73.298164,32.004162 
M90.000618,26.406731 
	C89.901855,24.984833 89.803093,23.562937 89.692978,21.977539 
	C87.941360,22.060286 86.671951,22.120253 85.605911,22.170612 
	C84.039963,29.918543 82.553810,37.271664 80.917030,45.370056 
	C83.706573,43.120327 85.643105,40.342064 87.561180,40.354744 
	C89.468475,40.367359 91.357224,43.184742 94.485306,45.802597 
	C92.791389,38.809021 91.397934,33.055977 90.000618,26.406731 
z"/>
<path fill="#292929" opacity="1.000000" stroke="none" 
	d="
M34.063763,44.990376 
	C32.403709,46.716579 30.743658,48.442780 29.098763,50.529751 
	C26.792192,50.925629 24.408270,51.298275 22.169043,50.885658 
	C20.474710,50.573441 18.831615,49.433002 17.409510,48.343060 
	C15.883253,47.173302 14.759263,45.485683 13.255682,44.278122 
	C7.286083,39.483776 7.251908,27.420324 13.332651,22.713959 
	C13.981437,22.211811 15.116488,21.957840 15.337612,21.341702 
	C17.693235,14.778025 23.132383,15.916939 28.649803,16.079437 
	C30.519550,18.063295 31.925182,20.017115 33.669174,22.457546 
	C34.026279,30.292894 34.045021,37.641636 34.063763,44.990376 
M24.298038,22.006378 
	C21.333591,21.511030 19.040207,22.670856 18.102360,25.411991 
	C17.098724,28.345419 16.183769,31.463228 16.093960,34.525894 
	C15.841748,43.126637 20.075377,46.274078 28.744503,44.265022 
	C28.744503,41.370033 28.744503,38.450233 28.744503,35.540184 
	C26.398279,35.540184 24.330875,35.540184 23.504383,35.540184 
	C24.054695,38.062347 24.547657,40.321674 25.040621,42.580997 
	C17.015217,37.122692 18.512110,26.650236 27.197096,22.615936 
	C26.226927,22.341112 25.674582,22.184649 24.298038,22.006378 
z"/>
<path fill="#E6E4E4" opacity="1.000000" stroke="none" 
	d="
M96.000000,37.869289 
	C96.000000,32.410294 96.000000,27.431078 96.000000,21.101181 
	C98.200607,22.786318 100.111397,23.538485 100.776688,24.899485 
	C102.418045,28.257212 103.377823,28.135454 105.197289,25.028591 
	C105.952339,23.739267 107.854317,23.121609 109.650909,21.920198 
	C109.650909,29.689947 109.650909,37.060268 109.650909,44.762959 
	C106.331207,43.672977 104.583694,42.012825 104.825150,38.072178 
	C104.946053,36.099026 103.257286,34.014984 102.048790,31.190693 
	C99.521500,36.218681 103.707878,42.625656 96.000000,45.439957 
	C96.000000,42.725235 96.000000,40.537151 96.000000,37.869289 
z"/>
<path fill="#E6E4E4" opacity="1.000000" stroke="none" 
	d="
M58.053490,31.954535 
	C58.239975,32.882736 58.215622,34.503544 58.644886,34.634220 
	C64.209373,36.328117 63.036644,40.595989 61.591846,45.248573 
	C59.462936,41.836681 57.334023,38.424786 55.205112,35.012890 
	C54.788105,35.098324 54.371101,35.183762 53.954094,35.269196 
	C53.954094,37.320404 54.395947,39.508614 53.815712,41.379910 
	C53.342876,42.904831 51.647224,44.050598 49.466324,44.865349 
	C49.466324,37.529327 49.466324,30.193304 49.466324,22.790991 
	C59.832329,20.629871 64.816010,21.763887 62.531654,31.827806 
	C61.377380,31.884653 60.104481,31.947342 58.411278,31.582294 
	C57.990982,28.897499 57.990982,26.640442 57.990982,23.570988 
	C51.882610,25.070337 54.759754,29.008766 54.250587,31.954535 
	C55.764992,31.954535 56.909241,31.954535 58.053490,31.954535 
z"/>
<path fill="#E6E4E4" opacity="1.000000" stroke="none" 
	d="
M34.507843,44.994240 
	C34.045021,37.641636 34.026279,30.292894 34.035652,22.476891 
	C38.078762,22.428257 42.418926,20.534475 45.293938,25.927486 
	C47.844189,30.711309 47.612240,35.344597 46.228130,39.726437 
	C44.624905,44.801941 39.906998,45.753410 34.507843,44.994240 
M42.997101,37.121147 
	C42.866287,32.424534 44.349483,27.191387 38.544285,24.214716 
	C38.544285,30.477457 38.544285,36.627480 38.544285,43.422649 
	C40.387627,41.176151 41.686035,39.593765 42.997101,37.121147 
z"/>
<path fill="#E6E4E4" opacity="1.000000" stroke="none" 
	d="
M73.741379,32.014088 
	C76.695992,32.743641 76.647865,34.001583 74.454735,34.848557 
	C73.006317,35.407928 71.218834,35.089321 69.299423,35.176727 
	C69.299423,37.743530 69.299423,40.128414 69.299423,42.802670 
	C72.253975,42.966221 75.036385,43.120243 77.818787,43.274265 
	C77.795639,43.691566 77.772499,44.108871 77.749352,44.526173 
	C73.771370,44.526173 69.793388,44.526173 65.402733,44.526173 
	C65.402733,37.445431 65.402733,30.076212 65.402733,22.375759 
	C69.453583,22.375759 73.584061,22.375759 77.714539,22.375759 
	C77.758904,22.773012 77.803261,23.170263 77.847618,23.567516 
	C75.108192,23.801441 72.368759,24.035364 69.321060,24.295612 
	C69.321060,26.592062 69.321060,28.848997 69.321060,31.680321 
	C70.503746,31.776623 71.900955,31.890392 73.741379,32.014088 
z"/>
<path fill="#E6E4E4" opacity="1.000000" stroke="none" 
	d="
M90.002548,26.854832 
	C91.397934,33.055977 92.791389,38.809021 94.485306,45.802597 
	C91.357224,43.184742 89.468475,40.367359 87.561180,40.354744 
	C85.643105,40.342064 83.706573,43.120327 80.917030,45.370056 
	C82.553810,37.271664 84.039963,29.918543 85.605911,22.170612 
	C86.671951,22.120253 87.941360,22.060286 89.692978,21.977539 
	C89.803093,23.562937 89.901855,24.984833 90.002548,26.854832 
M86.634712,36.966675 
	C87.746704,36.380234 89.092461,36.003380 89.879478,35.125584 
	C90.323112,34.630779 89.846100,33.310555 89.763199,32.048382 
	C88.035240,32.139439 86.644615,32.212719 84.738373,32.313168 
	C85.154465,34.119968 85.467224,35.478065 86.634712,36.966675 
z"/>
<path fill="#EC3B23" opacity="1.000000" stroke="none" 
	d="
M24.710138,22.017281 
	C25.674582,22.184649 26.226927,22.341112 27.197096,22.615936 
	C18.512110,26.650236 17.015217,37.122692 25.040621,42.580997 
	C24.547657,40.321674 24.054695,38.062347 23.504383,35.540184 
	C24.330875,35.540184 26.398279,35.540184 28.744503,35.540184 
	C28.744503,38.450233 28.744503,41.370033 28.744503,44.265022 
	C20.075377,46.274078 15.841748,43.126637 16.093960,34.525894 
	C16.183769,31.463228 17.098724,28.345419 18.102360,25.411991 
	C19.040207,22.670856 21.333591,21.511030 24.710138,22.017281 
z"/>
<path fill="#606060" opacity="1.000000" stroke="none" 
	d="
M58.028450,31.978455 
	C56.909241,31.954535 55.764992,31.954535 54.250587,31.954535 
	C54.759754,29.008766 51.882610,25.070337 57.990982,23.570988 
	C57.990982,26.640442 57.990982,28.897499 57.973270,31.603497 
	C57.955559,32.052433 58.003414,32.002373 58.028450,31.978455 
z"/>
<path fill="#606060" opacity="1.000000" stroke="none" 
	d="
M42.990776,37.566261 
	C41.686035,39.593765 40.387627,41.176151 38.544285,43.422649 
	C38.544285,36.627480 38.544285,30.477457 38.544285,24.214716 
	C44.349483,27.191387 42.866287,32.424534 42.990776,37.566261 
z"/>
<path fill="#606060" opacity="1.000000" stroke="none" 
	d="
M86.207352,36.901421 
	C85.467224,35.478065 85.154465,34.119968 84.738373,32.313168 
	C86.644615,32.212719 88.035240,32.139439 89.763199,32.048382 
	C89.846100,33.310555 90.323112,34.630779 89.879478,35.125584 
	C89.092461,36.003380 87.746704,36.380234 86.207352,36.901421 
z"/>
</svg>